<?xml version="1.0" encoding="utf-8"?>
<!-- Generator: Adobe Illustrator 23.1.1, SVG Export Plug-In . SVG Version: 6.00 Build 0)  -->
<svg version="1.1" id="圖層_1" xmlns="http://www.w3.org/2000/svg" xmlns:xlink="http://www.w3.org/1999/xlink" x="0px" y="0px"
	 viewBox="0 0 500 500" style="enable-background:new 0 0 500 500;" xml:space="preserve">
<style type="text/css">
	.st0{fill:#FFFFFF;}
</style>
<path class="st0" d="M90,40c-27.6,0-50,22.4-50,50v320c0,27.6,22.4,50,50,50h320c27.6,0,50-22.4,50-50V90c0-27.6-22.4-50-50-50H90z
	 M150,80h24l16,40l16-40h24l-30,70v40h-20v-40.1C174,133.8,154.1,90.1,150,80z M250,110c8.9,0,17.7,2.7,23.3,9.5
	c4.3,4.9,6.7,12.8,6.7,23.2v14.6c0,10.4-2,17.6-6.2,22.5c-5.6,6.7-14.9,10.2-23.8,10.2s-18-3.5-23.6-10.2
	c-4.3-4.9-6.4-12.1-6.4-22.5v-14.5c0-10.4,2.3-18.4,6.7-23.3C232.3,112.7,239.9,110,250,110z M290,110h20v60
	c0.5,2.7,3.4,3.9,6.1,3.9c4.1,0,9.3-4.8,13.9-10.1V110h20v80h-20v-13.8c-8.1,7.9-15,13.8-24.1,13.5c-6.6-0.2-11.2-2.6-13.5-7.4
	c-1.4-2.8-2.4-7.3-2.4-13.9V110z M250,126.2c-1.4,0-2.7,0.3-3.9,0.8s-2.3,1.3-3.2,2.2c-0.9,0.9-1.6,2-2.1,3.2s-0.8,2.6-0.8,4v28.1
	c0,2.8,1.1,5.4,2.9,7.2c0.9,0.9,2,1.7,3.2,2.2c1.2,0.5,2.5,0.8,3.9,0.8s2.7-0.3,3.9-0.8c3.6-1.6,6.1-5.2,6.1-9.4v-28.1
	C260,130.8,255.5,126.2,250,126.2z M249.9,220h0.2c0,0,67.1,0,111.9,3.2c6.3,0.7,19.9,0.8,32.1,13.3c9.6,9.4,12.7,31,12.7,31
	s3.2,15.3,3.2,40.6v23.7c0,25.3-3.2,40.6-3.2,40.6s-3.1,21.6-12.7,31c-12.2,12.5-25.8,12.6-32.1,13.3c-44.8,3.2-112,3.3-112,3.3
	s-83.2-0.8-108.8-3.2c-7.1-1.3-23.1-0.9-35.3-13.3c-9.6-9.5-12.7-31.1-12.7-31.1S90,357.1,90,331.8v-23.7c0-25.3,3.2-40.6,3.2-40.6
	s3.1-21.6,12.7-31c12.2-12.5,25.8-12.6,32.1-13.3C182.8,220,249.9,220,249.9,220z M120,260v19.8h20V380h20V279.8h20V260H120z
	 M250,260v120h20v-12.5c6.3,7.8,14.5,12.5,21.2,12.5c7.5,0,14.1-4,16.6-11.8c1.2-4.2,2.1-8.1,2.1-17v-27.5c0-9.9-1.3-17.3-2.6-21.5
	c-2.5-7.8-8.6-12.2-16.2-12.2c-9.8-0.1-13.8,5-21.2,13.8V260H250z M180,290v66.9c0,7.2,1,12.1,2.3,15.2c2.2,5.1,6.7,7.9,13.1,7.9
	c7.3,0,16.7-5.1,24.6-13.7V380h20v-90h-20v62.7c-4.4,5.8-10.8,10.2-14.8,10.2c-2.6,0-4.7-1.1-5.2-4V290H180z M350.3,290
	c-10.1,0-18,3.2-23.7,9.2c-4.2,4.4-6.6,11.6-6.6,21v30.7c0,9.3,2.7,15.8,6.9,20.2c5.7,6,13.6,9,23.9,9c10.3,0,18.4-3.1,23.9-9.5
	c2.4-2.8,3.9-6,4.6-9.5c0.2-1.6,0.7-5.9,0.7-11h-20v8c0,4.6-4.5,8.4-10,8.4s-10-3.8-10-8.4v-18h40v-5.8v-14.5
	c0-9.4-2.3-16.2-6.4-20.6C368,293.2,360.2,290,350.3,290z M350,304.5c5.5,0,10,3.8,10,8.4v13.3h-20v-13.3
	C340,308.2,344.5,304.5,350,304.5z M282.2,307.5c5.5,0,7.8,3.3,7.8,13.8v27.5c0,10.4-2.3,14-7.8,14c-3.1,0-9-2.1-12.2-5.3v-43.8
	C273.2,310.6,279.1,307.5,282.2,307.5z"/>
</svg>
