<?xml version="1.0" encoding="utf-8"?>
<!-- Generator: Adobe Illustrator 23.0.1, SVG Export Plug-In . SVG Version: 6.00 Build 0)  -->
<svg version="1.1" id="圖層_1" xmlns="http://www.w3.org/2000/svg" xmlns:xlink="http://www.w3.org/1999/xlink" x="0px" y="0px"
	 viewBox="0 0 165 30" style="enable-background:new 0 0 165 30;" xml:space="preserve">
<style type="text/css">
	.st0{fill-rule:evenodd;clip-rule:evenodd;fill:#FFFFFF;}
</style>
<g>
	<path class="st0" d="M13.4,3C6.5,3,1,8.5,1,15.4c0,6.8,5.5,12.4,12.4,12.4c6.8,0,12.4-5.5,12.4-12.4C25.8,8.5,20.2,3,13.4,3z
		 M4.7,22.7l3.4-9.3h3.3L8,22.7H4.7z M12.4,22.7H9.1l2.3-6.4h3.3L12.4,22.7z M16.7,22.7h-3.3l5.3-14.6h3.3L16.7,22.7z"/>
	<path class="st0" d="M46.2,3.2l4.2,0l0,12.9c0,3,1.7,5,4.8,5c3.1,0,4.8-2,4.8-5l0-12.9h4.1l0,13c0,5.4-2.9,9-9,9c-6.2,0-9-3.7-9-9
		L46.2,3.2z"/>
	<polygon class="st0" points="103.6,13.7 95.9,3.2 100.9,3.2 105.6,9.6 110.3,3.2 115.4,3.2 107.8,13.7 107.8,25.3 103.6,25.3 	"/>
	<path class="st0" d="M81.3,21.1c3.2,0,5.4,0,8.2,0c2.3,0,3.3-1.1,3.3-2.3c0-1.6-1.6-2.3-3.9-2.9c-3.3-0.8-7.4-1.5-7.4-6.3
		c0-3.6,2.9-6.4,7.6-6.4c3.2,0,2.5,0,5.2,0l3,4c-7.2,0-6.4,0-8.4,0c-1.9,0-3,1-3,2.2c0,1.4,1.5,1.8,3.8,2.4c3.3,0.8,7.5,2.2,7.5,6.6
		c0,3.9-2.6,6.9-8,6.9c-3.8,0-2.4,0-5,0L81.3,21.1z"/>
	<polygon class="st0" points="71.8,17.3 69.7,20 69.7,25.3 65.4,25.3 65.4,3.2 69.7,3.2 69.7,13.1 76.8,3.2 81.9,3.2 74.4,13.7 
		82.7,25.3 77.5,25.3 	"/>
	<path class="st0" d="M40.8,3.2l0,14.2c0,2.3-1.6,3.7-3.8,3.7c-2.4,0-3.8-1.6-3.8-3.7l0-3.7h-4.1v4c0,4.8,3.7,7.6,8,7.6
		c3.8,0,7.8-2.4,7.8-7.5l0-14.6H40.8z"/>
	<path class="st0" d="M124.1,4.6L122,3.3c-0.6,1-2.6,3.9-4.3,5.2l1.4,2C122.1,8.3,124,4.7,124.1,4.6"/>
	<path class="st0" d="M124.9,9.8L123,8.3c-0.9,1.1-3.7,4.3-5.5,5.2l1.2,2.2c0.4-0.2,0.9-0.2,1.4-0.6l0,10.4h2.5l0-12.7
		C123.9,11.5,124.9,9.9,124.9,9.8"/>
	<polygon class="st0" points="127,11.7 124.5,11.7 124.5,14.4 132.2,14.4 132.2,11.7 129.7,11.7 129.7,8.9 132.2,8.9 132.2,6.7 
		129.7,6.7 129.7,4 127,4 127,6.7 124.5,6.7 124.5,8.9 127,8.9 	"/>
	<polygon class="st0" points="129.7,22.8 129.7,19.3 132.2,19.3 132.2,17.3 129.7,17.3 129.7,15.4 127,15.4 127,17.3 124.5,17.3 
		124.5,19.3 127,19.3 127,22.8 123.8,22.8 123.8,25.5 133.2,25.5 132.3,22.8 	"/>
	<rect x="132.9" y="4" class="st0" width="7.4" height="2.7"/>
	<path class="st0" d="M135.4,21.5c0,0.2,0,0.6-0.2,0.8c-0.2,0.2-0.4,0.5-0.8,0.5h-1.2l0.9,2.7h0.3c1.4,0,2.3-0.9,2.7-1.4
		c1-1,1-2.7,1-3v-9.4h2.2V9.4h-7.4v2.2h2.5v9.5L135.4,21.5z"/>
	<path class="st0" d="M155.6,23v-1.5h6.4v-2.2h-6.4v-1.7h7.4v-2.5h-7.4v-1.7h7.4V3.5h-17.8v9.9h0.8c-1,1.7-2.3,2.5-3.5,3.2l1.3,2.2
		c0.6-0.4,1.2-0.8,1.8-1.3h7.2v1.7h-6.7v2.2h6.7V23h-9.1v2.5h20.7V23H155.6z M148,10.9h12.3V9.7H148V10.9z M148,7.5h12.3V6.2H148
		V7.5z M148.1,15.1c0.5-0.5,0.9-1.2,1.2-1.7h3.6v1.7H148.1z"/>
</g>
</svg>
