<?xml version="1.0" encoding="utf-8"?>
<!-- Generator: Adobe Illustrator 23.0.4, SVG Export Plug-In . SVG Version: 6.00 Build 0)  -->
<svg version="1.1" id="圖層_1" xmlns="http://www.w3.org/2000/svg" xmlns:xlink="http://www.w3.org/1999/xlink" x="0px" y="0px"
	 viewBox="0 0 240 24" style="enable-background:new 0 0 240 24;" xml:space="preserve">
<style type="text/css">
	.st0{fill-rule:evenodd;clip-rule:evenodd;fill:#FFFFFF;}
	.st1{enable-background:new    ;}
	.st2{fill:#FFFFFF;}
</style>
<title>Logo</title>
<desc>Created with Sketch.</desc>
<path id="Fill-1" class="st0" d="M15.1,18.9h-3.2l5.1-14.1h3.2L15.1,18.9z M10.9,18.9H7.8l2.2-6.1h3.2L10.9,18.9z M3.6,18.9l3.3-9
	H10l-3.3,9H3.6z M11.9,0C5.3,0,0,5.3,0,11.9c0,6.6,5.3,11.9,11.9,11.9c6.6,0,11.9-5.3,11.9-11.9C23.8,5.3,18.5,0,11.9,0z"/>
<g class="st1">
	<path class="st2" d="M37.1,21h-8.1V2.5h7.7c3.8,0,5.9,2.2,5.9,5.4c0,2.1-1.5,3.3-2,3.7c0.8,0.5,2.3,1.4,2.3,4
		C42.9,19.1,40.4,21,37.1,21z M36.4,6.6h-2.8v3h2.8c1.2,0,1.6-0.8,1.6-1.5C38.1,7.3,37.7,6.6,36.4,6.6z M36.7,13.7h-3.1v3.2h3.1
		c1.2,0,1.7-0.9,1.7-1.6C38.3,14.5,37.9,13.7,36.7,13.7z"/>
	<path class="st2" d="M46,21V2.5h12.6v4.1h-8v3.1h6.9v4.1h-6.9v3.2h8V21H46z"/>
	<path class="st2" d="M79.2,19.1c-1.4,1.4-2.9,2.1-5.2,2.1s-3.8-0.7-5.2-2.1c-2-2-1.9-4.6-1.9-7.3c0-2.8-0.1-5.4,1.9-7.3
		c1.4-1.4,2.9-2.1,5.2-2.1s3.8,0.7,5.2,2.1c2,2,1.9,4.6,1.9,7.3C81.1,14.5,81.2,17.1,79.2,19.1z M75.9,7.2c-0.3-0.4-1-0.8-1.8-0.8
		s-1.5,0.4-1.8,0.8c-0.4,0.5-0.7,1.2-0.7,4.6c0,3.4,0.3,4,0.7,4.5c0.3,0.4,1,0.8,1.8,0.8s1.5-0.4,1.8-0.8c0.4-0.5,0.7-1.1,0.7-4.5
		C76.6,8.4,76.3,7.7,75.9,7.2z"/>
	<path class="st2" d="M90.9,21.2c-3.8,0-7-2.6-7-6.7v-12h4.5v11.9c0,1.7,0.9,2.7,2.4,2.7c1.5,0,2.5-1,2.5-2.7V2.5H98v12
		C98,18.6,94.8,21.2,90.9,21.2z"/>
	<path class="st2" d="M109.4,6.5V21h-4.6V6.5h-4.5V2.5H114v4.1H109.4z"/>
	<path class="st2" d="M121.9,21.2c-2.8,0-5.1-0.5-7-2.4l2.9-2.9c1,1,2.7,1.3,4.1,1.3c1.8,0,2.7-0.6,2.7-1.7c0-0.4-0.1-0.8-0.4-1.1
		c-0.2-0.2-0.6-0.4-1.2-0.5l-2.2-0.3c-1.6-0.2-2.9-0.8-3.7-1.6c-0.9-0.9-1.3-2.1-1.3-3.7c0-3.4,2.5-5.9,6.8-5.9
		c2.7,0,4.7,0.6,6.2,2.2l-2.9,2.9c-1.2-1.2-2.7-1.1-3.5-1.1c-1.6,0-2.2,0.9-2.2,1.7c0,0.2,0.1,0.6,0.4,0.9c0.2,0.2,0.6,0.5,1.3,0.5
		l2.2,0.3c1.7,0.2,2.9,0.8,3.6,1.5c1,1,1.4,2.3,1.4,4.1C129.1,19.1,125.8,21.2,121.9,21.2z"/>
	<path class="st2" d="M140.1,6.5V21h-4.6V6.5H131V2.5h13.7v4.1H140.1z"/>
	<path class="st2" d="M156,21l-0.9-2.8h-5.7l-0.9,2.8h-4.8l6.7-18.5h3.5l6.7,18.5H156z M152.4,9.5l-1.7,4.9h3.2L152.4,9.5z"/>
	<path class="st2" d="M173.2,21l-5.9-9.3V21h-4.5V2.5h4l5.9,9.3V2.5h4.6V21H173.2z"/>
	<path class="st2" d="M192.7,19.2c-1.3,1.3-3.1,1.8-5,1.8h-6.9V2.5h6.9c1.9,0,3.7,0.5,5,1.8c2.2,2.2,1.9,4.5,1.9,7.4
		S194.9,17,192.7,19.2z M189.6,7.6c-0.4-0.6-1-1-2.2-1h-2v10.4h2c1.1,0,1.8-0.4,2.2-1c0.4-0.5,0.5-1,0.5-4.2
		C190.1,8.6,190,8.1,189.6,7.6z"/>
	<path class="st2" d="M197.8,21V2.5h4.5V21H197.8z"/>
	<path class="st2" d="M216.6,21l-5.9-9.3V21h-4.5V2.5h4l5.9,9.3V2.5h4.5V21H216.6z"/>
	<path class="st2" d="M236.1,19.1c-1.6,1.6-3.4,2.1-5.4,2.1c-2.2,0-3.8-0.7-5.1-2.1c-2-2-1.9-4.6-1.9-7.3c0-2.8-0.1-5.4,1.9-7.3
		c1.4-1.4,2.9-2.1,5.1-2.1c4.8,0,6.8,3.1,7.2,6.1h-4.6c-0.4-1.4-1.1-2.1-2.7-2.1c-0.8,0-1.5,0.4-1.8,0.8c-0.4,0.5-0.7,1.2-0.7,4.6
		c0,3.4,0.3,4,0.7,4.6c0.3,0.4,1,0.8,1.8,0.8c1,0,1.6-0.3,2-0.7c0.5-0.5,0.7-1.3,0.7-2v-0.3h-2.7v-3.8h7.3v2.6
		C238,15.9,237.5,17.6,236.1,19.1z"/>
</g>
</svg>
