<?xml version="1.0" encoding="utf-8"?>
<!-- Generator: Adobe Illustrator 25.1.0, SVG Export Plug-In . SVG Version: 6.00 Build 0)  -->
<svg version="1.1" id="圖層_1" xmlns="http://www.w3.org/2000/svg" xmlns:xlink="http://www.w3.org/1999/xlink" x="0px" y="0px"
	 viewBox="0 0 24 25" style="enable-background:new 0 0 24 25;" xml:space="preserve">
<style type="text/css">
	.st0{fill:#FFFFFF;}
</style>
<desc>Created with Sketch.</desc>
<path id="Shape" class="st0" d="M23.1,20.4c-0.6-1.4-1.5-2.7-2.6-3.8c-1.1-1.1-2.4-1.9-3.8-2.5l0,0c2-1.4,3.3-3.7,3.3-6.3
	C19.9,3.5,16.4,0,12,0S4.1,3.5,4.1,7.8c0,2.6,1.3,4.9,3.3,6.3l0,0c-1.4,0.6-2.7,1.4-3.8,2.5s-2,2.3-2.6,3.8c-0.7,1.4-1,2.8-1,4.3
	C0,24.9,0.1,25,0.3,25h1.9c0.1,0,0.3-0.1,0.3-0.2c0.1-2.4,1.1-4.7,2.8-6.4c1.8-1.8,4.2-2.8,6.8-2.8s5,1,6.8,2.8
	c1.7,1.7,2.7,4,2.8,6.4c0,0.1,0.1,0.2,0.3,0.2h1.9c0.1,0,0.3-0.1,0.3-0.3C24,23.2,23.7,21.8,23.1,20.4z M12,14
	c-1.6,0-3.1-0.6-4.2-1.8C6.6,11.1,6,9.6,6,8s0.6-3.1,1.8-4.2C8.9,2.6,10.4,2,12,2s3.1,0.6,4.2,1.8C17.4,4.9,18,6.4,18,8
	s-0.6,3.1-1.8,4.2C15.1,13.4,13.6,14,12,14z"/>
</svg>
