<?xml version="1.0" encoding="utf-8"?>
<!-- Generator: Adobe Illustrator 23.0.4, SVG Export Plug-In . SVG Version: 6.00 Build 0)  -->
<svg version="1.1" id="圖層_1" xmlns="http://www.w3.org/2000/svg" xmlns:xlink="http://www.w3.org/1999/xlink" x="0px" y="0px"
	 viewBox="0 0 24 25" style="enable-background:new 0 0 24 25;" xml:space="preserve">
<style type="text/css">
	.st0{fill:#211815;}
</style>
<title>header</title>
<desc>Created with Sketch.</desc>
<path id="Shape" class="st0" d="M2.2,10.9c0-4.8,3.9-8.7,8.7-8.7c4.8,0,8.7,3.9,8.7,8.7c0,4.8-3.9,8.7-8.7,8.7
	C6.1,19.5,2.2,15.6,2.2,10.9 M23.7,23.1l-4.9-4.9c1.9-2,3-4.7,3-7.4c0-6-4.9-10.9-10.9-10.9S0,4.9,0,10.9c0,6,4.9,10.9,10.9,10.9
	c2.2,0,4.4-0.7,6.3-2l5,5c0.4,0.4,1.1,0.4,1.5,0C24.1,24.3,24.1,23.6,23.7,23.1"/>
</svg>
